<svg xmlns="http://www.w3.org/2000/svg" viewBox="0 0 256 256" role="img" aria-labelledby="title desc">
  <title id="title">EcoWatch logo</title>
  <desc id="desc">Blue eye and green leaf shield enclosed by green environmental hands.</desc>
  <rect width="256" height="256" rx="28" fill="#f7fbf8"/>
  <path d="M37 117c2-36 25-70 63-83 13-4 25-5 37-4-2 9-9 17-20 20-30 8-52 29-63 57-4 11-9 18-17 10Z" fill="#6fb34f"/>
  <path d="M219 117c-2-36-25-70-63-83-13-4-25-5-37-4 2 9 9 17 20 20 30 8 52 29 63 57 4 11 9 18 17 10Z" fill="#6fb34f"/>
  <path d="M42 122c9 57 44 91 86 112V111c-34 0-61 4-86 11Z" fill="#245b7a"/>
  <path d="M214 122c-9 57-44 91-86 112V111c34 0 61 4 86 11Z" fill="#5fae46"/>
  <path d="M68 119c17-23 37-35 60-35s43 12 60 35c-17 23-37 35-60 35s-43-12-60-35Z" fill="#ffffff"/>
  <circle cx="128" cy="119" r="26" fill="#245b7a"/>
  <circle cx="137" cy="109" r="8" fill="#ffffff"/>
  <path d="M111 206c11-33 32-50 63-52-7 30-27 48-63 52Z" fill="#6fb34f"/>
  <path d="M125 196c12-16 25-25 40-31-11 13-22 23-40 31Z" fill="#245b7a" opacity=".8"/>
</svg>
